HIERARCHY
ROOT hip
{
  OFFSET 0 90.174 2.4664
  CHANNELS 6 Xposition Yposition Zposition Zrotation Xrotation Yrotation
  JOINT abdomen
  {
    OFFSET 0 -1.186 -1.5018
    CHANNELS 6 Xposition Yposition Zposition Zrotation Xrotation Yrotation
    JOINT abdomen2
    {
      OFFSET 0 9.964 0.2134
      CHANNELS 6 Xposition Yposition Zposition Zrotation Xrotation Yrotation
      JOINT chest
      {
        OFFSET 0 13.134 -3.2573
        CHANNELS 6 Xposition Yposition Zposition Zrotation Xrotation Yrotation
        JOINT neck
        {
          OFFSET 0 20.686 -1.6905
          CHANNELS 6 Xposition Yposition Zposition Zrotation Xrotation Yrotation
          JOINT head
          {
            OFFSET 0 7.238 -0.1237
            CHANNELS 6 Xposition Yposition Zposition Zrotation Xrotation Yrotation
            End Site
            {
              OFFSET 0 0 0
            }
          }
        }
        JOINT lCollar
        {
          OFFSET 1.7069 20.075 5.0056
          CHANNELS 6 Xposition Yposition Zposition Zrotation Xrotation Yrotation
          JOINT lShldr
          {
            OFFSET 13.6458 -0.047 -4.849
            CHANNELS 6 Xposition Yposition Zposition Zrotation Xrotation Yrotation
            JOINT lForeArm
            {
              OFFSET 28.3255 -0.9759 2.2888
              CHANNELS 6 Xposition Yposition Zposition Zrotation Xrotation Yrotation
              JOINT lHand
              {
                OFFSET 22.1583 -0.53 10.8316
                CHANNELS 6 Xposition Yposition Zposition Zrotation Xrotation Yrotation
                JOINT lThumb1
                {
                  OFFSET 0.786 0.112 2.5817
                  CHANNELS 6 Xposition Yposition Zposition Zrotation Xrotation Yrotation
                  JOINT lThumb2
                  {
                    OFFSET 0.3601 -0.878 4.2331
                    CHANNELS 6 Xposition Yposition Zposition Zrotation Xrotation Yrotation
                    JOINT lThumb2_End
                    {
                      OFFSET 1.8127 -1.216 2.2227
                      CHANNELS 6 Xposition Yposition Zposition Zrotation Xrotation Yrotation
                      End Site
                      {
                        OFFSET 0.0181 -0.0122 0.0222
                      }
                    }
                  }
                }
                JOINT lCarpal1
                {
                  OFFSET 0.9571 1.114 1.7695
                  CHANNELS 6 Xposition Yposition Zposition Zrotation Xrotation Yrotation
                  JOINT lIndex1
                  {
                    OFFSET 4.1246 0.487 4.1451
                    CHANNELS 6 Xposition Yposition Zposition Zrotation Xrotation Yrotation
                    JOINT lIndex2
                    {
                      OFFSET 3.4052 -1.454 2.7682
                      CHANNELS 6 Xposition Yposition Zposition Zrotation Xrotation Yrotation
                      JOINT lIndex2_End
                      {
                        OFFSET 1.4531 -1.795 1.2713
                        CHANNELS 6 Xposition Yposition Zposition Zrotation Xrotation Yrotation
                        End Site
                        {
                          OFFSET 0.0145 -0.0179 0.0127
                        }
                      }
                    }
                  }
                  JOINT lMid1
                  {
                    OFFSET 5.6954 0.21 2.1184
                    CHANNELS 6 Xposition Yposition Zposition Zrotation Xrotation Yrotation
                    JOINT lMid2
                    {
                      OFFSET 3.9766 -1.54 2.3863
                      CHANNELS 6 Xposition Yposition Zposition Zrotation Xrotation Yrotation
                      JOINT lMid2_End
                      {
                        OFFSET 1.4042 -1.926 1.125
                        CHANNELS 6 Xposition Yposition Zposition Zrotation Xrotation Yrotation
                        End Site
                        {
                          OFFSET 0.014 -0.0193 0.0113
                        }
                      }
                    }
                  }
                }
                JOINT lCarpal2
                {
                  OFFSET 2.0956 0.66 -0.3894
                  CHANNELS 6 Xposition Yposition Zposition Zrotation Xrotation Yrotation
                  JOINT lRing1
                  {
                    OFFSET 5.0395 -0.09 2.4971
                    CHANNELS 6 Xposition Yposition Zposition Zrotation Xrotation Yrotation
                    JOINT lRing2
                    {
                      OFFSET 3.7921 -1.552 1.4806
                      CHANNELS 6 Xposition Yposition Zposition Zrotation Xrotation Yrotation
                      JOINT lRing2_End
                      {
                        OFFSET 1.4655 -1.808 0.9609
                        CHANNELS 6 Xposition Yposition Zposition Zrotation Xrotation Yrotation
                        End Site
                        {
                          OFFSET 0.0147 -0.0181 0.0096
                        }
                      }
                    }
                  }
                  JOINT lPinky1
                  {
                    OFFSET 4.9141 -1.269 0.3591
                    CHANNELS 6 Xposition Yposition Zposition Zrotation Xrotation Yrotation
                    JOINT lPinky2
                    {
                      OFFSET 3.1477 -1.685 0.8462
                      CHANNELS 6 Xposition Yposition Zposition Zrotation Xrotation Yrotation
                      JOINT lPinky2_End
                      {
                        OFFSET 0.8055 -1.585 0.7955
                        CHANNELS 6 Xposition Yposition Zposition Zrotation Xrotation Yrotation
                        End Site
                        {
                          OFFSET 0.0081 -0.0158 0.008
                        }
                      }
                    }
                  }
                }
              }
            }
          }
        }
        JOINT rCollar
        {
          OFFSET -1.7069 20.075 5.0056
          CHANNELS 6 Xposition Yposition Zposition Zrotation Xrotation Yrotation
          JOINT rShldr
          {
            OFFSET -13.6458 -0.047 -4.849
            CHANNELS 6 Xposition Yposition Zposition Zrotation Xrotation Yrotation
            JOINT rForeArm
            {
              OFFSET -28.3255 -0.9759 2.2888
              CHANNELS 6 Xposition Yposition Zposition Zrotation Xrotation Yrotation
              JOINT rHand
              {
                OFFSET -22.1583 -0.53 10.8316
                CHANNELS 6 Xposition Yposition Zposition Zrotation Xrotation Yrotation
                JOINT rThumb1
                {
                  OFFSET -0.786 0.112 2.5817
                  CHANNELS 6 Xposition Yposition Zposition Zrotation Xrotation Yrotation
                  JOINT rThumb2
                  {
                    OFFSET -0.3601 -0.878 4.2331
                    CHANNELS 6 Xposition Yposition Zposition Zrotation Xrotation Yrotation
                    JOINT rThumb2_End
                    {
                      OFFSET -1.8127 -1.216 2.2227
                      CHANNELS 6 Xposition Yposition Zposition Zrotation Xrotation Yrotation
                      End Site
                      {
                        OFFSET -0.0181 -0.0122 0.0222
                      }
                    }
                  }
                }
                JOINT rCarpal1
                {
                  OFFSET -0.9571 1.114 1.7695
                  CHANNELS 6 Xposition Yposition Zposition Zrotation Xrotation Yrotation
                  JOINT rIndex1
                  {
                    OFFSET -4.1246 0.487 4.1451
                    CHANNELS 6 Xposition Yposition Zposition Zrotation Xrotation Yrotation
                    JOINT rIndex2
                    {
                      OFFSET -3.4052 -1.454 2.7682
                      CHANNELS 6 Xposition Yposition Zposition Zrotation Xrotation Yrotation
                      JOINT rIndex2_End
                      {
                        OFFSET -1.4531 -1.795 1.2713
                        CHANNELS 6 Xposition Yposition Zposition Zrotation Xrotation Yrotation
                        End Site
                        {
                          OFFSET -0.0145 -0.018 0.0127
                        }
                      }
                    }
                  }
                  JOINT rMid1
                  {
                    OFFSET -5.6954 0.21 2.1184
                    CHANNELS 6 Xposition Yposition Zposition Zrotation Xrotation Yrotation
                    JOINT rMid2
                    {
                      OFFSET -3.9766 -1.54 2.3863
                      CHANNELS 6 Xposition Yposition Zposition Zrotation Xrotation Yrotation
                      JOINT rMid2_End
                      {
                        OFFSET -1.4042 -1.926 1.125
                        CHANNELS 6 Xposition Yposition Zposition Zrotation Xrotation Yrotation
                        End Site
                        {
                          OFFSET -0.014 -0.0193 0.0113
                        }
                      }
                    }
                  }
                }
                JOINT rCarpal2
                {
                  OFFSET -2.0956 0.66 -0.3894
                  CHANNELS 6 Xposition Yposition Zposition Zrotation Xrotation Yrotation
                  JOINT rRing1
                  {
                    OFFSET -5.0395 -0.09 2.4971
                    CHANNELS 6 Xposition Yposition Zposition Zrotation Xrotation Yrotation
                    JOINT rRing2
                    {
                      OFFSET -3.7921 -1.552 1.4806
                      CHANNELS 6 Xposition Yposition Zposition Zrotation Xrotation Yrotation
                      JOINT rRing2_End
                      {
                        OFFSET -1.4655 -1.808 0.9609
                        CHANNELS 6 Xposition Yposition Zposition Zrotation Xrotation Yrotation
                        End Site
                        {
                          OFFSET -0.0147 -0.0181 0.0096
                        }
                      }
                    }
                  }
                  JOINT rPinky1
                  {
                    OFFSET -4.9141 -1.269 0.3592
                    CHANNELS 6 Xposition Yposition Zposition Zrotation Xrotation Yrotation
                    JOINT rPinky2
                    {
                      OFFSET -3.1477 -1.685 0.8462
                      CHANNELS 6 Xposition Yposition Zposition Zrotation Xrotation Yrotation
                      JOINT rPinky2_End
                      {
                        OFFSET -0.8055 -1.585 0.7955
                        CHANNELS 6 Xposition Yposition Zposition Zrotation Xrotation Yrotation
                        End Site
                        {
                          OFFSET -0.0081 -0.0158 0.008
                        }
                      }
                    }
                  }
                }
              }
            }
          }
        }
      }
    }
  }
  JOINT lThigh
  {
    OFFSET 8.367 -8.2066 0.5982
    CHANNELS 6 Xposition Yposition Zposition Zrotation Xrotation Yrotation
    JOINT lShin
    {
      OFFSET 2.1923 -43.463 -0.4932
      CHANNELS 6 Xposition Yposition Zposition Zrotation Xrotation Yrotation
      JOINT lFoot
      {
        OFFSET 0.7333 -45.8593 -2.6451
        CHANNELS 6 Xposition Yposition Zposition Zrotation Xrotation Yrotation
        End Site
        {
          OFFSET 2.6618 -4.2699 12.3931
        }
      }
    }
  }
  JOINT rThigh
  {
    OFFSET -8.367 -8.2066 0.5982
    CHANNELS 6 Xposition Yposition Zposition Zrotation Xrotation Yrotation
    JOINT rShin
    {
      OFFSET -2.1923 -43.463 -0.4931
      CHANNELS 6 Xposition Yposition Zposition Zrotation Xrotation Yrotation
      JOINT rFoot
      {
        OFFSET -0.7333 -45.8593 -2.6451
        CHANNELS 6 Xposition Yposition Zposition Zrotation Xrotation Yrotation
        End Site
        {
          OFFSET -2.6618 -4.2699 12.3931
        }
      }
    }
  }
}
MOTION
Frames:	3
Frame Time:	0.0333333
0 90.174 2.4664 0 0 -0 0 -1.186 -1.5018 0 0 -0 0 9.964 0.2134 0 0 -0 0 13.134 -3.2573 0 0 -0 0 20.686 -1.6905 0 0 -0 0 7.238 -0.1237 0 0 -0 1.7069 20.075 5.0056 0 0 -0 13.6458 -0.047 -4.849 1.66051 0.0835086 5.75766 28.3255 -0.9759 2.2888 -0.0175111 0.895433 15.7816 22.1583 -0.53 10.8316 7.95139e-016 -1.98785e-016 -0 0.786 0.112 2.5817 5.46658e-016 -3.97569e-016 -0 0.3601 -0.878 4.2331 5.96354e-016 0 -0 1.8127 -1.216 2.2227 3.97569e-016 1.98785e-016 9.54166e-015 0.9571 1.114 1.7695 1.49089e-016 -3.97569e-016 -0 4.1246 0.487 4.1451 6.4605e-016 0 3.18055e-015 3.4052 -1.454 2.7682 5.96354e-016 0 3.18055e-015 1.4531 -1.795 1.2713 8.94531e-016 -1.98785e-016 6.36111e-015 5.6954 0.21 2.1184 6.4605e-016 0 3.18055e-015 3.9766 -1.54 2.3863 5.96354e-016 0 3.18055e-015 1.4042 -1.926 1.125 8.94531e-016 -1.98785e-016 6.36111e-015 2.0956 0.66 -0.3894 1.49089e-016 -3.97569e-016 -0 5.0395 -0.09 2.4971 6.4605e-016 0 3.18055e-015 3.7921 -1.552 1.4806 5.96354e-016 0 3.18055e-015 1.4655 -1.808 0.9609 8.94531e-016 -1.98785e-016 6.36111e-015 4.9141 -1.269 0.3591 6.4605e-016 0 3.18055e-015 3.1477 -1.685 0.8462 5.96354e-016 0 3.18055e-015 0.8055 -1.585 0.7955 8.94531e-016 -1.98785e-016 6.36111e-015 -1.7069 20.075 5.0056 0 0 -0 -13.6458 -0.047 -4.849 -1.4496 0.0636048 -5.0245 -28.3255 -0.9759 2.2888 -1.74811 1.20616 -16.8394 -22.1583 -0.53 10.8316 -1.19271e-015 1.98785e-016 -3.18055e-015 -0.786 0.112 2.5817 -3.97569e-016 1.98785e-016 -3.18055e-015 -0.3601 -0.878 4.2331 -2.98177e-016 1.98785e-016 -3.18055e-015 -1.8127 -1.216 2.2227 -2.98177e-016 3.97569e-016 -0 -0.9571 1.114 1.7695 4.96962e-016 0 -6.36111e-015 -4.1246 0.487 4.1451 -9.93923e-017 3.97569e-016 -0 -3.4052 -1.454 2.7682 -8.94531e-016 5.96354e-016 -0 -1.4531 -1.795 1.2713 -3.97569e-016 3.97569e-016 -0 -5.6954 0.21 2.1184 -9.93923e-017 3.97569e-016 -0 -3.9766 -1.54 2.3863 -8.94531e-016 5.96354e-016 -0 -1.4042 -1.926 1.125 -3.97569e-016 3.97569e-016 -0 -2.0956 0.66 -0.3894 4.96962e-016 0 -6.36111e-015 -5.0395 -0.09 2.4971 -9.93923e-017 3.97569e-016 -0 -3.7921 -1.552 1.4806 -8.94531e-016 5.96354e-016 -0 -1.4655 -1.808 0.9609 -3.97569e-016 3.97569e-016 -0 -4.9141 -1.269 0.3592 -9.93923e-017 3.97569e-016 -0 -3.1477 -1.685 0.8462 -8.94531e-016 5.96354e-016 -0 -0.8055 -1.585 0.7955 -3.97569e-016 3.97569e-016 -0 8.367 -8.2066 0.5982 -4.66115 -1.03232 0.120763 2.1923 -43.463 -0.4932 0.00990601 1.55097 0.177175 0.7333 -45.8593 -2.6451 4.65196 -0.54114 -0.255042 -8.367 -8.2066 0.5982 4.66115 -1.03222 -0.120763 -2.1923 -43.463 -0.4931 -0.00990459 1.5509 -0.177176 -0.7333 -45.8593 -2.6451 -4.65196 -0.541171 0.255041 
1.30756 -3.92959 -76.517 -0.00682213 -63.0021 43.9937 -3.55271e-015 -1.186 -1.5018 1.80224 12.9286 3.19256 3.55271e-015 9.964 0.2134 2.95836 25.9347 6.20223 0 13.134 -3.2573 2.95837 25.9347 6.20222 0 20.686 -1.6905 2.88386e-005 -1.61295e-005 -6.75058e-006 -7.10543e-015 7.238 -0.1237 -0.0023059 -6.00064 29.9972 1.7069 20.075 5.0056 -2.39532e-006 -7.18495e-006 7.79952e-007 13.6458 -0.047 -4.849 -5.04399 22.0982 -15.5457 28.3255 -0.9759 2.2888 -19.6737 -6.33983 -53.927 22.1583 -0.53 10.8316 -17.4479 -54.875 -49.7184 0.786 0.112 2.5817 -1.19457e-006 7.62206e-007 -9.29517e-007 0.3601 -0.878 4.2331 3.81475e-032 -7.45443e-016 2.93207e-015 1.8127 -1.216 2.2227 -1.19457e-006 7.62206e-007 -9.29517e-007 0.9571 1.114 1.7695 4.4846e-031 7.60351e-015 -3.37934e-015 4.1246 0.487 4.1451 -1.19457e-006 7.62206e-007 -9.29517e-007 3.4052 -1.454 2.7682 3.18055e-015 8.64713e-015 1.73937e-015 1.4531 -1.795 1.2713 -1.19457e-006 7.62206e-007 -9.29517e-007 5.6954 0.21 2.1184 -1.19457e-006 7.62206e-007 -9.29517e-007 3.9766 -1.54 2.3863 3.18055e-015 8.64713e-015 1.73937e-015 1.4042 -1.926 1.125 -1.19457e-006 7.62206e-007 -9.29517e-007 2.0956 0.66 -0.3894 4.4846e-031 7.60351e-015 -3.37934e-015 5.0395 -0.09 2.4971 -1.19457e-006 7.62206e-007 -9.29517e-007 3.7921 -1.552 1.4806 3.18055e-015 8.64713e-015 1.73937e-015 1.4655 -1.808 0.9609 -1.19457e-006 7.62206e-007 -9.29517e-007 4.9141 -1.269 0.3591 -1.19457e-006 7.62206e-007 -9.29517e-007 3.1477 -1.685 0.8462 3.18055e-015 8.64713e-015 1.73937e-015 0.8055 -1.585 0.7955 -1.19457e-006 7.62206e-007 -9.29517e-007 -1.7069 20.075 5.0056 -2.39532e-006 -7.18495e-006 7.79952e-007 -13.6458 -0.047 -4.849 82.5624 6.78596 3.20691 -28.3255 -0.9759 2.2888 -0.483636 -2.72827 58.0798 -22.1583 -0.53 10.8316 35.838 13.5346 -3.41837 -0.786 0.112 2.5817 2.41622e-006 2.03698e-006 -5.73022e-006 -0.3601 -0.878 4.2331 -2.02618e-032 5.71506e-016 2.03133e-015 -1.8127 -1.216 2.2227 3.92138e-006 2.76895e-006 3.03689e-007 -0.9571 1.114 1.7695 1.59028e-015 -1.36664e-015 -2.01269e-015 -4.1246 0.487 4.1451 2.41622e-006 2.03698e-006 -5.73022e-006 -3.4052 -1.454 2.7682 9.55035e-033 -2.48481e-016 2.20216e-015 -1.4531 -1.795 1.2713 3.92138e-006 2.76895e-006 3.03689e-007 -5.6954 0.21 2.1184 2.41622e-006 2.03698e-006 -5.73022e-006 -3.9766 -1.54 2.3863 9.55035e-033 -2.48481e-016 2.20216e-015 -1.4042 -1.926 1.125 3.92138e-006 2.76895e-006 3.03689e-007 -2.0956 0.66 -0.3894 1.59028e-015 -1.36664e-015 -2.01269e-015 -5.0395 -0.09 2.4971 2.41622e-006 2.03698e-006 -5.73022e-006 -3.7921 -1.552 1.4806 9.55035e-033 -2.48481e-016 2.20216e-015 -1.4655 -1.808 0.9609 3.92138e-006 2.76895e-006 3.03689e-007 -4.9141 -1.269 0.3592 2.41622e-006 2.03698e-006 -5.73022e-006 -3.1477 -1.685 0.8462 9.55035e-033 -2.48481e-016 2.20216e-015 -0.8055 -1.585 0.7955 3.92138e-006 2.76895e-006 3.03689e-007 8.367 -8.2066 0.5982 50.9637 -49.5404 90.4696 2.1923 -43.463 -0.4932 0.367195 71.3568 1.52353 0.7333 -45.8593 -2.6451 2.40514 17.8326 0.845718 -8.367 -8.2066 0.5982 -24.3244 -13.1525 -29.3739 -2.1923 -43.463 -0.4931 -0.09322 4.44238 -1.45191 -0.7333 -45.8593 -2.6451 -6.42784 25.1904 1.7153 
1.30476 -3.9288 -76.5221 -0.00682213 -63.0021 43.9937 -3.55271e-015 -1.186 -1.5018 1.80224 12.9286 3.19257 0 9.964 0.2134 2.95836 25.9347 6.20223 0 13.134 -3.2573 2.95837 25.9347 6.20223 7.10543e-015 20.686 -1.6905 -7.96763e-005 -9.34473e-005 1.41585e-006 7.10543e-015 7.238 -0.1237 -0.00217538 -6.42903 29.9972 1.7069 20.075 5.0056 -5.37798e-007 -1.51499e-006 -5.62505e-007 13.6458 -0.047 -4.849 -5.04398 22.0982 -15.5458 28.3255 -0.9759 2.2888 -19.6737 -6.33984 -53.927 22.1583 -0.53 10.8316 -17.4479 -54.875 -49.7184 0.786 0.112 2.5817 -1.19457e-006 7.62207e-007 -9.29517e-007 0.3601 -0.878 4.2331 3.18055e-015 -1.78906e-015 3.47873e-016 1.8127 -1.216 2.2227 3.18055e-015 5.36719e-015 4.42296e-015 0.9571 1.114 1.7695 1.27222e-014 4.72114e-015 2.33572e-015 4.1246 0.487 4.1451 -1.19457e-006 7.62207e-007 -9.29517e-007 3.4052 -1.454 2.7682 -6.34284e-031 6.70898e-015 5.41688e-015 1.4531 -1.795 1.2713 3.18055e-015 4.52235e-015 -7.45443e-016 5.6954 0.21 2.1184 -1.19457e-006 7.62207e-007 -9.29517e-007 3.9766 -1.54 2.3863 -6.34284e-031 6.70898e-015 5.41688e-015 1.4042 -1.926 1.125 3.18055e-015 4.52235e-015 -7.45443e-016 2.0956 0.66 -0.3894 1.27222e-014 4.72114e-015 2.33572e-015 5.0395 -0.09 2.4971 -1.19457e-006 7.62207e-007 -9.29517e-007 3.7921 -1.552 1.4806 -6.34284e-031 6.70898e-015 5.41688e-015 1.4655 -1.808 0.9609 3.18055e-015 4.52235e-015 -7.45443e-016 4.9141 -1.269 0.3591 -1.19457e-006 7.62207e-007 -9.29517e-007 3.1477 -1.685 0.8462 -6.34284e-031 6.70898e-015 5.41688e-015 0.8055 -1.585 0.7955 3.18055e-015 4.52235e-015 -7.45443e-016 -1.7069 20.075 5.0056 -5.37798e-007 -1.51499e-006 -5.62505e-007 -13.6458 -0.047 -4.849 82.5624 6.78597 3.20692 -28.3255 -0.9759 2.2888 -0.410215 -2.77768 59.5739 -22.1583 -0.53 10.8316 35.838 13.5346 -3.41837 -0.786 0.112 2.5817 1.59028e-015 -9.93923e-016 2.48481e-015 -0.3601 -0.878 4.2331 -4.29066e-006 -3.15357e-006 3.6038e-006 -1.8127 -1.216 2.2227 2.14533e-006 1.57678e-006 -1.8019e-006 -0.9571 1.114 1.7695 1.59028e-015 -5.96354e-016 -6.4605e-016 -4.1246 0.487 4.1451 1.59028e-015 1.98785e-016 -3.97569e-016 -3.4052 -1.454 2.7682 -4.29066e-006 -3.15357e-006 3.6038e-006 -1.4531 -1.795 1.2713 2.14533e-006 1.57678e-006 -1.8019e-006 -5.6954 0.21 2.1184 1.59028e-015 1.98785e-016 -3.97569e-016 -3.9766 -1.54 2.3863 -4.29066e-006 -3.15357e-006 3.6038e-006 -1.4042 -1.926 1.125 2.14533e-006 1.57678e-006 -1.8019e-006 -2.0956 0.66 -0.3894 1.59028e-015 -5.96354e-016 -6.4605e-016 -5.0395 -0.09 2.4971 1.59028e-015 1.98785e-016 -3.97569e-016 -3.7921 -1.552 1.4806 -4.29066e-006 -3.15357e-006 3.6038e-006 -1.4655 -1.808 0.9609 2.14533e-006 1.57678e-006 -1.8019e-006 -4.9141 -1.269 0.3592 1.59028e-015 1.98785e-016 -3.97569e-016 -3.1477 -1.685 0.8462 -4.29066e-006 -3.15357e-006 3.6038e-006 -0.8055 -1.585 0.7955 2.14533e-006 1.57678e-006 -1.8019e-006 8.367 -8.2066 0.5982 50.9557 -49.5393 90.4626 2.1923 -43.463 -0.4932 0.365379 71.3742 1.16587 0.7333 -45.8593 -2.6451 2.38529 17.8325 0.84847 -8.367 -8.2066 0.5982 -24.3199 -13.1587 -29.3735 -2.1923 -43.463 -0.4931 -0.0942059 4.43812 -1.89037 -0.7333 -45.8593 -2.6451 -6.46971 25.153 1.7254 
